<?xml version="1.0" encoding="utf-8"?>
<!-- Generator: Adobe Illustrator 16.0.0, SVG Export Plug-In . SVG Version: 6.00 Build 0)  -->
<!DOCTYPE svg PUBLIC "-//W3C//DTD SVG 1.1//EN" "http://www.w3.org/Graphics/SVG/1.1/DTD/svg11.dtd">
<svg version="1.1" id="Layer_1" xmlns="http://www.w3.org/2000/svg" xmlns:xlink="http://www.w3.org/1999/xlink" x="0px" y="0px"
	 width="841.891px" height="841.89px" viewBox="0 0 841.891 841.89" enable-background="new 0 0 841.891 841.89"
	 xml:space="preserve">
<g id="Layer_1_1_">
	<path d="M110.613,357.013c0,12.124-9.817,21.924-21.924,21.924c-12.105,0-21.924-9.801-21.924-21.924
		c0,0,21.355-7.497,21.924-23.54C89.257,349.516,110.613,357.013,110.613,357.013z"/>
	<path d="M251.615,357.013c0,12.124-9.818,21.924-21.924,21.924c-12.104,0-21.924-9.801-21.924-21.924
		c0,0,21.355-7.497,21.924-23.54C230.258,349.516,251.615,357.013,251.615,357.013z"/>
	<path d="M630.484,357.017c0,12.123-9.82,21.924-21.924,21.924c-12.107,0-21.924-9.801-21.924-21.924c0,0,21.354-7.497,21.924-23.54
		C609.129,349.52,630.484,357.017,630.484,357.017z"/>
	<path d="M771.485,357.017c0,12.123-9.82,21.924-21.924,21.924c-12.107,0-21.924-9.801-21.924-21.924c0,0,21.354-7.497,21.924-23.54
		C750.13,349.52,771.485,357.017,771.485,357.017z"/>
	<path d="M88.688,378.945"/>
	<g id="XMLID_1_">
		<g>
			<path d="M530.115,134.94c18.934,8.15,26.532,32.706,17.006,54.853l-29.574,47.734v0.017c-19.361-3.852-39.173-6.551-59.323-8.064
				v-0.017l23.813-39.893l0.054-0.069c1.787-2.476,3.336-5.193,4.606-8.15c5.038-11.676,4.522-24.142-0.396-33.634
				C497.719,134.184,515.206,128.509,530.115,134.94z"/>
			<path d="M517.546,237.544l-5.743,24.744c-29.575-6.208-60.252-11.831-91.702-11.831l1.462,0.104
				c-31.433,0-62.109,5.605-91.703,11.847l-5.726-24.761c19.36-3.817,39.17-6.534,59.321-8.047
				c12.57-0.963,25.277-1.445,38.105-1.445v-0.104c12.346,0.035,24.572,0.516,36.66,1.427
				C478.373,230.993,498.184,233.693,517.546,237.544z"/>
			<path d="M482.036,189.57l-23.813,39.893v0.017c-12.088-0.911-24.314-1.393-36.66-1.427l-0.688-54.044l6.879-18.055
				c8.2-19.052,28.045-28.802,44.328-21.787c6.293,2.717,11.144,7.549,14.222,13.55c4.918,9.492,5.434,21.958,0.396,33.634
				c-1.271,2.958-2.818,5.674-4.606,8.15L482.036,189.57z"/>
			<path d="M420.873,174.008l0.688,54.044c-0.481,0-0.98,0-1.462,0l1.462,0.104c-12.828,0-25.535,0.479-38.105,1.445v-0.018
				l-15.836-26.532l-6.311-10.541l-1.719-2.889l-2.685-3.938c-0.619-1.169-1.187-2.424-1.941-4.213
				c-5.039-11.693-4.506-24.159,0.413-33.651c3.076-6.001,7.927-10.816,14.22-13.533c16.267-7.016,36.127,2.734,44.33,21.769
				l6.859,18.072L420.873,174.008z"/>
			<path d="M356.906,185.684c0.019,0.035,0.054,0.086,0.069,0.121l0.017,0.034c0.464,0.843,0.98,1.651,1.668,2.562l2.648,4.11
				l6.311,10.541l15.836,26.532v0.018c-20.151,1.513-39.961,4.23-59.321,8.047l-29.576-47.751c-0.018-0.034-0.034-0.086-0.052-0.12
				c-9.458-22.096-1.84-46.582,17.042-54.733c14.925-6.414,32.413-0.739,43.831,12.776c-4.918,9.492-5.451,21.958-0.413,33.651
				C355.721,183.259,356.287,184.514,356.906,185.684z"/>
		</g>
		<g>
			<path fill="none" stroke="#FFFFFF" stroke-width="5" stroke-miterlimit="10" d="M517.546,237.544l-5.743,24.744
				c-29.575-6.208-60.252-11.831-91.702-11.831l1.462,0.104c-31.433,0-62.109,5.605-91.703,11.847l-5.726-24.761
				c19.36-3.817,39.17-6.534,59.321-8.047c12.57-0.963,25.277-1.445,38.105-1.445l-1.462-0.104c0.479,0,0.979,0,1.462,0
				c12.346,0.035,24.572,0.516,36.66,1.427C478.373,230.993,498.184,233.693,517.546,237.544z"/>
			<path fill="none" stroke="#FFFFFF" stroke-width="5" stroke-miterlimit="10" d="M294.506,189.776
				c-9.458-22.096-1.84-46.582,17.042-54.733c14.925-6.414,32.413-0.739,43.831,12.776"/>
			<path fill="none" stroke="#FFFFFF" stroke-width="5" stroke-miterlimit="10" d="M294.626,190.085
				c0-0.051-0.034-0.103-0.068-0.189"/>
			<path fill="none" stroke="#FFFFFF" stroke-width="5" stroke-miterlimit="10" d="M294.626,190.085
				C294.661,190.172,294.695,190.206,294.626,190.085L294.626,190.085z"/>
			<path fill="none" stroke="#FFFFFF" stroke-width="5" stroke-miterlimit="10" d="M294.42,189.639c0,0,0,0,0.018,0.017
				c0,0,0,0,0,0.017c0.034,0.086,0.138,0.31,0.188,0.413"/>
			<path fill="none" stroke="#FFFFFF" stroke-width="5" stroke-miterlimit="10" d="M294.557,189.896
				c-0.018-0.034-0.034-0.086-0.052-0.12c-0.034-0.052-0.052-0.086-0.068-0.104"/>
			
				<line fill="none" stroke="#FFFFFF" stroke-width="5" stroke-miterlimit="10" x1="367.619" y1="203.051" x2="383.456" y2="229.583"/>
			
				<line fill="none" stroke="#FFFFFF" stroke-width="5" stroke-miterlimit="10" x1="359.591" y1="189.622" x2="361.309" y2="192.51"/>
			
				<line fill="none" stroke="#FFFFFF" stroke-width="5" stroke-miterlimit="10" x1="294.557" y1="189.896" x2="324.134" y2="237.648"/>
			<polyline fill="none" stroke="#FFFFFF" stroke-width="5" stroke-miterlimit="10" points="356.992,185.838 358.66,188.4 
				361.309,192.51 367.619,203.051 			"/>
			<path fill="none" stroke="#FFFFFF" stroke-width="5" stroke-miterlimit="10" d="M482.09,189.501
				c1.788-2.476,3.336-5.193,4.606-8.15c5.038-11.676,4.522-24.142-0.396-33.634c-3.078-6.001-7.93-10.833-14.223-13.55
				c-16.282-7.016-36.127,2.734-44.328,21.787l-6.879,18.055l-0.086,0.12l-6.859-18.072c-8.202-19.035-28.063-28.785-44.33-21.769
				c-6.293,2.717-11.145,7.531-14.22,13.533c-4.92,9.492-5.451,21.958-0.413,33.651c0.756,1.789,1.322,3.043,1.941,4.213
				c0.019,0.035,0.052,0.086,0.069,0.121l0.017,0.034c0.464,0.843,0.98,1.651,1.668,2.562c0.275,0.378,0.584,0.791,0.931,1.221
				l-2.685-3.938l-0.344-0.516"/>
			<path fill="none" stroke="#FFFFFF" stroke-width="5" stroke-miterlimit="10" d="M480.73,191.324
				c0.447-0.567,0.894-1.152,1.307-1.754"/>
			<path fill="none" stroke="#FFFFFF" stroke-width="5" stroke-miterlimit="10" d="M545.849,192.51
				c0.447-0.894,0.857-1.789,1.271-2.717c9.526-22.147,1.928-46.703-17.006-54.853c-14.908-6.431-32.396-0.756-43.813,12.776"/>
			<polyline fill="none" stroke="#FFFFFF" stroke-width="5" stroke-miterlimit="10" points="482.09,189.501 482.036,189.57 
				458.222,229.463 			"/>
			
				<line fill="none" stroke="#FFFFFF" stroke-width="5" stroke-miterlimit="10" x1="547.12" y1="189.793" x2="517.546" y2="237.527"/>
			<polyline fill="none" stroke="#FFFFFF" stroke-width="5" stroke-miterlimit="10" points="420.873,174.008 421.562,228.053 
				421.562,228.156 			"/>
		</g>
	</g>
	<rect x="416.108" y="64.993" width="11.197" height="96.293"/>
	<rect x="395.953" y="96.97" width="51.507" height="8.827"/>
</g>
<path fill="none" stroke="#000000" stroke-width="11" stroke-miterlimit="10" d="M421.707,769.228H84.104V413.965h140.428
	c40.122-1.174,48.146-25.795,48.146-25.795v-66.831c0,0,10.316-48.073,48.146-46.9c16.907,0.524,59.233,0.576,100.879,0.473"/>
<path fill="none" stroke="#000000" stroke-width="24" stroke-miterlimit="10" d="M460.771,450.404"/>
<line fill="none" stroke="#000000" stroke-width="21" stroke-miterlimit="10" x1="356.51" y1="673.369" x2="356.51" y2="417.734"/>
<line fill="none" stroke="#000000" stroke-width="21" stroke-miterlimit="10" x1="243.447" y1="495.685" x2="243.447" y2="442.953"/>
<line fill="none" stroke="#000000" stroke-width="21" stroke-miterlimit="10" x1="270.959" y1="495.685" x2="270.959" y2="424.611"/>
<line fill="none" stroke="#000000" stroke-width="21" stroke-miterlimit="10" x1="297.326" y1="495.685" x2="297.326" y2="410.854"/>
<line fill="none" stroke="#000000" stroke-width="21" stroke-miterlimit="10" x1="324.84" y1="495.685" x2="324.84" y2="393.086"/>
<line fill="none" stroke="#000000" stroke-width="21" stroke-miterlimit="10" x1="103.592" y1="672.779" x2="103.592" y2="540.902"/>
<line fill="none" stroke="#000000" stroke-width="21" stroke-miterlimit="10" x1="213.069" y1="672.779" x2="213.069" y2="540.902"/>
<line fill="none" stroke="#000000" stroke-width="21" stroke-miterlimit="10" x1="131.104" y1="672.779" x2="131.104" y2="497.236"/>
<line fill="none" stroke="#000000" stroke-width="21" stroke-miterlimit="10" x1="157.471" y1="672.779" x2="157.471" y2="442.953"/>
<line fill="none" stroke="#000000" stroke-width="21" stroke-miterlimit="10" x1="184.983" y1="672.779" x2="184.983" y2="499.892"/>
<line fill="none" stroke="#000000" stroke-width="21" stroke-miterlimit="10" x1="324.838" y1="672.189" x2="324.838" y2="614.416"/>
<line fill="none" stroke="#000000" stroke-width="21" stroke-miterlimit="10" x1="297.325" y1="672.189" x2="297.325" y2="594.322"/>
<line fill="none" stroke="#000000" stroke-width="21" stroke-miterlimit="10" x1="270.958" y1="672.189" x2="270.958" y2="579.25"/>
<line fill="none" stroke="#000000" stroke-width="21" stroke-miterlimit="10" x1="243.446" y1="672.189" x2="243.446" y2="559.783"/>
<line fill="none" stroke="#000000" stroke-width="21" stroke-miterlimit="10" x1="383.448" y1="673.941" x2="383.448" y2="378.184"/>
<line fill="none" stroke="#000000" stroke-width="21" stroke-miterlimit="10" x1="409.24" y1="673.941" x2="409.24" y2="328.317"/>
<path fill="none" stroke="#000000" stroke-width="11" stroke-miterlimit="10" d="M420.794,769.228h337.602V414.17H617.969
	c-40.124-1.172-48.147-25.78-48.147-25.78v-66.792c0,0-10.314-48.046-48.146-46.873c-16.906,0.523-59.232,0.576-100.881,0.472"/>
<path fill="none" stroke="#000000" stroke-width="24" stroke-miterlimit="10" d="M383.448,447.732"/>
<line fill="none" stroke="#000000" stroke-width="21" stroke-miterlimit="10" x1="485.989" y1="674.134" x2="485.989" y2="418.5"/>
<line fill="none" stroke="#000000" stroke-width="21" stroke-miterlimit="10" x1="599.053" y1="496.451" x2="599.053" y2="443.718"/>
<line fill="none" stroke="#000000" stroke-width="21" stroke-miterlimit="10" x1="571.539" y1="496.451" x2="571.539" y2="425.378"/>
<line fill="none" stroke="#000000" stroke-width="21" stroke-miterlimit="10" x1="545.174" y1="496.451" x2="545.174" y2="411.621"/>
<line fill="none" stroke="#000000" stroke-width="21" stroke-miterlimit="10" x1="517.659" y1="496.451" x2="517.659" y2="393.852"/>
<line fill="none" stroke="#000000" stroke-width="21" stroke-miterlimit="10" x1="738.907" y1="673.369" x2="738.907" y2="541.591"/>
<line fill="none" stroke="#000000" stroke-width="21" stroke-miterlimit="10" x1="629.43" y1="673.369" x2="629.43" y2="541.591"/>
<line fill="none" stroke="#000000" stroke-width="21" stroke-miterlimit="10" x1="711.396" y1="673.369" x2="711.396" y2="497.962"/>
<line fill="none" stroke="#000000" stroke-width="21" stroke-miterlimit="10" x1="685.029" y1="673.369" x2="685.029" y2="443.718"/>
<line fill="none" stroke="#000000" stroke-width="21" stroke-miterlimit="10" x1="657.517" y1="673.369" x2="657.517" y2="500.615"/>
<line fill="none" stroke="#000000" stroke-width="21" stroke-miterlimit="10" x1="517.659" y1="672.779" x2="517.659" y2="615.05"/>
<line fill="none" stroke="#000000" stroke-width="21" stroke-miterlimit="10" x1="545.174" y1="672.779" x2="545.174" y2="594.97"/>
<line fill="none" stroke="#000000" stroke-width="21" stroke-miterlimit="10" x1="571.539" y1="672.779" x2="571.539" y2="579.912"/>
<line fill="none" stroke="#000000" stroke-width="21" stroke-miterlimit="10" x1="599.053" y1="672.779" x2="599.053" y2="560.458"/>
<line fill="none" stroke="#000000" stroke-width="21" stroke-miterlimit="10" x1="460.771" y1="674.707" x2="460.771" y2="378.949"/>
<line fill="none" stroke="#000000" stroke-width="21" stroke-miterlimit="10" x1="434.979" y1="673.91" x2="434.979" y2="328.317"/>
<g id="XMLID_11_">
	<g>
		<path d="M517.265,675.66v86.691H324.558V675.66H517.265z M497.353,729.753V718.65v-11.123
			c-8.771-4.707-16.267-10.842-22.663-18.775h-0.172h-52.772h-52.789h-0.172c-6.396,7.934-13.894,14.068-22.646,18.775v11.123
			v11.104c8.752,4.707,16.25,10.859,22.646,18.775h0.172h52.789h52.772h0.172C481.087,740.613,488.582,734.46,497.353,729.753z"/>
		<path d="M497.353,718.65v11.104c-8.771,4.707-16.267,10.859-22.663,18.775h-0.172h-52.772h-52.789h-0.172
			c-6.396-7.916-13.894-14.068-22.646-18.775V718.65v-11.123c8.752-4.707,16.25-10.842,22.646-18.775h0.172h52.789h52.772h0.172
			c6.396,7.934,13.895,14.068,22.663,18.775V718.65z"/>
	</g>
	<g>
		<path fill="none" stroke="#FFFFFF" stroke-width="4" stroke-miterlimit="10" d="M497.353,718.65v-11.123
			c-8.771-4.707-16.267-10.842-22.663-18.775h-0.172h-52.772"/>
		<path fill="none" stroke="#FFFFFF" stroke-width="4" stroke-miterlimit="10" d="M346.138,718.65v-11.123
			c8.752-4.707,16.25-10.842,22.646-18.775h0.172h52.789"/>
		<path fill="none" stroke="#FFFFFF" stroke-width="4" stroke-miterlimit="10" d="M497.353,718.65v11.104
			c-8.771,4.707-16.267,10.859-22.663,18.775h-0.172h-52.772"/>
		<path fill="none" stroke="#FFFFFF" stroke-width="4" stroke-miterlimit="10" d="M346.138,718.65v11.104
			c8.752,4.707,16.25,10.859,22.646,18.775h0.172h52.789"/>
		
			<rect x="324.558" y="675.66" fill="none" stroke="#FFFFFF" stroke-width="2" stroke-miterlimit="10" width="192.707" height="86.691"/>
	</g>
</g>
<g id="XMLID_10_">
	<g>
		<path d="M206.558,675.304v86.691H92.923v-86.691H206.558z M194.816,729.396v-11.104v-11.123
			c-5.171-4.707-9.592-10.84-13.363-18.775h-0.103h-31.119h-31.129H119c-3.771,7.936-8.192,14.068-13.354,18.775v11.123v11.104
			c5.161,4.709,9.582,10.861,13.354,18.775h0.102h31.129h31.119h0.103C185.224,740.257,189.645,734.105,194.816,729.396z"/>
		<path d="M194.816,718.294v11.104c-5.171,4.709-9.592,10.859-13.363,18.775h-0.103h-31.119h-31.129H119
			c-3.771-7.916-8.192-14.066-13.354-18.775v-11.104v-11.123c5.161-4.709,9.582-10.842,13.354-18.775h0.102h31.129h31.119h0.103
			c3.771,7.936,8.192,14.066,13.363,18.775V718.294L194.816,718.294z"/>
	</g>
	<g>
		<path fill="none" stroke="#FFFFFF" stroke-width="4" stroke-miterlimit="10" d="M194.816,718.294v-11.123
			c-5.171-4.709-9.592-10.842-13.363-18.775h-0.103h-31.119"/>
		<path fill="none" stroke="#FFFFFF" stroke-width="4" stroke-miterlimit="10" d="M105.648,718.294v-11.123
			c5.161-4.709,9.582-10.842,13.354-18.775h0.102h31.129"/>
		<path fill="none" stroke="#FFFFFF" stroke-width="4" stroke-miterlimit="10" d="M194.816,718.294v11.104
			c-5.171,4.709-9.592,10.859-13.363,18.775h-0.103h-31.119"/>
		<path fill="none" stroke="#FFFFFF" stroke-width="4" stroke-miterlimit="10" d="M105.648,718.294v11.104
			c5.161,4.709,9.582,10.859,13.354,18.775h0.102h31.129"/>
		
			<rect x="92.923" y="675.304" fill="none" stroke="#FFFFFF" stroke-width="2" stroke-miterlimit="10" width="113.636" height="86.691"/>
	</g>
</g>
<g id="XMLID_9_">
	<g>
		<path d="M322.616,675.66v86.691H208.982V675.66H322.616z M310.876,729.753V718.65v-11.123
			c-5.172-4.707-9.593-10.842-13.364-18.775h-0.103H266.29h-31.129h-0.102c-3.771,7.934-8.192,14.068-13.354,18.775v11.123v11.104
			c5.161,4.707,9.582,10.859,13.354,18.775h0.102h31.129h31.119h0.103C301.284,740.613,305.705,734.46,310.876,729.753z"/>
		<path d="M310.876,718.65v11.104c-5.172,4.707-9.593,10.859-13.364,18.775h-0.103H266.29h-31.129h-0.102
			c-3.771-7.916-8.192-14.068-13.354-18.775V718.65v-11.123c5.161-4.707,9.582-10.842,13.354-18.775h0.102h31.129h31.119h0.103
			c3.771,7.934,8.192,14.068,13.364,18.775V718.65z"/>
	</g>
	<g>
		<path fill="none" stroke="#FFFFFF" stroke-width="4" stroke-miterlimit="10" d="M310.876,718.65v-11.123
			c-5.172-4.707-9.593-10.842-13.364-18.775h-0.103H266.29"/>
		<path fill="none" stroke="#FFFFFF" stroke-width="4" stroke-miterlimit="10" d="M221.708,718.65v-11.123
			c5.161-4.707,9.582-10.842,13.354-18.775h0.102h31.129"/>
		<path fill="none" stroke="#FFFFFF" stroke-width="4" stroke-miterlimit="10" d="M310.876,718.65v11.104
			c-5.172,4.707-9.593,10.859-13.364,18.775h-0.103H266.29"/>
		<path fill="none" stroke="#FFFFFF" stroke-width="4" stroke-miterlimit="10" d="M221.708,718.65v11.104
			c5.161,4.707,9.582,10.859,13.354,18.775h0.102h31.129"/>
		
			<rect x="208.982" y="675.66" fill="none" stroke="#FFFFFF" stroke-width="2" stroke-miterlimit="10" width="113.635" height="86.691"/>
	</g>
</g>
<g id="XMLID_8_">
	<g>
		<path d="M632.899,675.482v86.691H519.264v-86.691H632.899z M621.156,729.576V718.47v-11.123
			c-5.171-4.707-9.592-10.84-13.361-18.773h-0.104h-31.119h-31.129h-0.101c-3.772,7.934-8.193,14.066-13.354,18.773v11.123v11.105
			c5.161,4.707,9.582,10.857,13.354,18.771h0.101h31.129h31.119h0.104C611.565,740.435,615.986,734.283,621.156,729.576z"/>
		<path d="M621.156,718.472v11.104c-5.171,4.709-9.592,10.859-13.361,18.775h-0.104h-31.119h-31.129h-0.101
			c-3.772-7.916-8.193-14.066-13.354-18.775v-11.104v-11.123c5.161-4.707,9.582-10.842,13.354-18.773h0.101h31.129h31.119h0.104
			c3.771,7.934,8.19,14.066,13.361,18.773V718.472z"/>
	</g>
	<g>
		<path fill="none" stroke="#FFFFFF" stroke-width="4" stroke-miterlimit="10" d="M621.156,718.472v-11.123
			c-5.171-4.707-9.592-10.842-13.361-18.773h-0.104h-31.119"/>
		<path fill="none" stroke="#FFFFFF" stroke-width="4" stroke-miterlimit="10" d="M531.989,718.472v-11.123
			c5.161-4.707,9.582-10.842,13.354-18.773h0.101h31.129"/>
		<path fill="none" stroke="#FFFFFF" stroke-width="4" stroke-miterlimit="10" d="M621.156,718.472v11.104
			c-5.171,4.709-9.592,10.859-13.361,18.775h-0.104h-31.119"/>
		<path fill="none" stroke="#FFFFFF" stroke-width="4" stroke-miterlimit="10" d="M531.989,718.472v11.104
			c5.161,4.709,9.582,10.859,13.354,18.775h0.101h31.129"/>
		
			<rect x="519.264" y="675.482" fill="none" stroke="#FFFFFF" stroke-width="2" stroke-miterlimit="10" width="113.636" height="86.691"/>
	</g>
</g>
<g id="XMLID_7_">
	<g>
		<path d="M748.96,675.837v86.693H635.323v-86.693H748.96z M737.218,729.931v-11.104v-11.121
			c-5.171-4.709-9.592-10.842-13.363-18.775h-0.102h-31.119h-31.129h-0.103c-3.771,7.934-8.192,14.066-13.354,18.775v11.121v11.104
			c5.16,4.709,9.582,10.859,13.354,18.775h0.103h31.129h31.119h0.102C727.625,740.791,732.047,734.64,737.218,729.931z"/>
		<path d="M737.218,718.828v11.104c-5.171,4.707-9.592,10.859-13.363,18.775h-0.102h-31.119h-31.129h-0.103
			c-3.771-7.916-8.192-14.068-13.354-18.775v-11.104v-11.123c5.16-4.707,9.582-10.842,13.354-18.775h0.103h31.129h31.119h0.102
			c3.771,7.938,8.192,14.068,13.363,18.775V718.828z"/>
	</g>
	<g>
		<path fill="none" stroke="#FFFFFF" stroke-width="4" stroke-miterlimit="10" d="M737.218,718.828v-11.123
			c-5.171-4.707-9.592-10.842-13.363-18.775h-0.102h-31.119"/>
		<path fill="none" stroke="#FFFFFF" stroke-width="4" stroke-miterlimit="10" d="M648.05,718.828v-11.123
			c5.161-4.707,9.582-10.842,13.354-18.775h0.103h31.129"/>
		<path fill="none" stroke="#FFFFFF" stroke-width="4" stroke-miterlimit="10" d="M737.218,718.828v11.104
			c-5.171,4.707-9.592,10.859-13.363,18.775h-0.102h-31.119"/>
		<path fill="none" stroke="#FFFFFF" stroke-width="4" stroke-miterlimit="10" d="M648.05,718.828v11.104
			c5.161,4.707,9.582,10.859,13.354,18.775h0.103h31.129"/>
		
			<rect x="635.323" y="675.837" fill="none" stroke="#FFFFFF" stroke-width="2" stroke-miterlimit="10" width="113.638" height="86.693"/>
	</g>
</g>
<path fill="none" stroke="#000000" stroke-width="25" stroke-miterlimit="10" d="M816.969,807.359
	c0,6.787-5.501,12.285-12.287,12.285H37.226c-6.785,0-12.285-5.498-12.285-12.285V39.903c0-6.784,5.5-12.285,12.285-12.285h767.456
	c6.786,0,12.287,5.501,12.287,12.285V807.359z"/>
</svg>
